# xmcd
#
# Track frame offsets:
#	150
#	17870
#	36577
#	52599
#	62623
#	76446
#	100258
#	125677
#	143790
#	162475
#	173949
#	185019
#	197176
#	209176
#	220259
#	226680
#
# Disc length: 3328 seconds
# Revision: 0
# Processed by: cddbd v1.5.2PL0 Copyright (c) Steve Scherf et al.
# Submitted via: dBpowerAMP V12.0
#
DISCID=ee0cfe10
DTITLE=Merle Haggard - Live at the Concord Pavillion
DYEAR=1987
DGENRE=Country
TTITLE0=I Think I'll Just Stay Here and Drink
TTITLE1=Hungry Eyes
TTITLE2=Today I Started Loving You Again
TTITLE3=Mama Tried
TTITLE4=Kern River
TTITLE5=If I Could Only Fly
TTITLE6=When Times Were Good
TTITLE7=Honky Tonk Night Time Man
TTITLE8=Footlights
TTITLE9=Ida Red
TTITLE10=This Mornin', This Evening, So Soon
TTITLE11=I Knew the Moment I Lost You
TTITLE12=Bill Cheatum
TTITLE13=Oke from Muskogee
TTITLE14=The Fightin' Side of Me
TTITLE15=The Chill Factor
EXTD=
EXTT0=
EXTT1=
EXTT2=
EXTT3=
EXTT4=
EXTT5=
EXTT6=
EXTT7=
EXTT8=
EXTT9=
EXTT10=
EXTT11=
EXTT12=
EXTT13=
EXTT14=
EXTT15=
PLAYORDER=
